<?xml version="1.0" standalone="no"?><svg xmlns="http://www.w3.org/2000/svg" viewBox="0 0 1440 320"><path fill="#efeefd" fill-opacity="0.81" d="M0,256L84.7,160L169.4,96L254.1,192L338.8,192L423.5,64L508.2,224L592.9,224L677.6,128L762.4,224L847.1,192L931.8,128L1016.5,64L1101.2,128L1185.9,96L1270.6,32L1355.3,256L1440,192L1440,320L1355.3,320L1270.6,320L1185.9,320L1101.2,320L1016.5,320L931.8,320L847.1,320L762.4,320L677.6,320L592.9,320L508.2,320L423.5,320L338.8,320L254.1,320L169.4,320L84.7,320L0,320Z"></path></svg>