<?xml version="1.0" standalone="no"?><svg xmlns="http://www.w3.org/2000/svg" viewBox="0 0 1440 320"><path fill="#eaf6ec" fill-opacity="0.81" d="M0,128L84.7,224L169.4,192L254.1,320L338.8,288L423.5,128L508.2,32L592.9,160L677.6,96L762.4,224L847.1,128L931.8,256L1016.5,224L1101.2,256L1185.9,96L1270.6,256L1355.3,32L1440,256L1440,320L1355.3,320L1270.6,320L1185.9,320L1101.2,320L1016.5,320L931.8,320L847.1,320L762.4,320L677.6,320L592.9,320L508.2,320L423.5,320L338.8,320L254.1,320L169.4,320L84.7,320L0,320Z"></path></svg>