<?xml version="1.0" standalone="no"?><svg xmlns="http://www.w3.org/2000/svg" viewBox="0 0 1440 320"><path fill="#fefaee" fill-opacity="0.81" d="M0,96L55.4,224L110.8,192L166.2,256L221.5,32L276.9,64L332.3,288L387.7,224L443.1,128L498.5,160L553.8,96L609.2,96L664.6,256L720,288L775.4,192L830.8,128L886.2,32L941.5,32L996.9,288L1052.3,128L1107.7,64L1163.1,0L1218.5,32L1273.8,64L1329.2,192L1384.6,256L1440,64L1440,320L1384.6,320L1329.2,320L1273.8,320L1218.5,320L1163.1,320L1107.7,320L1052.3,320L996.9,320L941.5,320L886.2,320L830.8,320L775.4,320L720,320L664.6,320L609.2,320L553.8,320L498.5,320L443.1,320L387.7,320L332.3,320L276.9,320L221.5,320L166.2,320L110.8,320L55.4,320L0,320Z"></path></svg>